<svg id="Layer_1" data-name="Layer 1" xmlns="http://www.w3.org/2000/svg" viewBox="0 0 1276.73 1591.39"><defs><style>.cls-1{fill:#a87c51;}.cls-2{fill:#7e5437;}</style></defs><title>odera_logo</title><path class="cls-1" d="M1223.35,740q-12.87-26.7-28.33-51.94c-.6-1.06-1.2-2-1.9-3.11-7.28-11.76-14.86-23.34-23-34.52-7.28-10.41-15-20.52-23-30.44-1.4-1.85-2.89-3.6-4.49-5.45A634,634,0,0,0,981.27,475.49h-.1c-9.78-6-19.65-11.67-29.83-17a635.86,635.86,0,0,0-197.89-67.3c-3.29-.58-6.58-1.16-10-1.65-4.88-.68-9.77-1.46-14.76-1.95-5.68-.77-11.37-1.45-17.15-2q-8.23-.87-16.46-1.46l-13.17-.87c-12.07-.68-24.14-1-36.31-1a646.93,646.93,0,0,0-120.49,11.18C230.49,448.45,7.26,701.59,7.26,1004.62c0,343.2,286.37,622.4,638.36,622.4S1284,1347.82,1284,1004.62A605.44,605.44,0,0,0,1223.35,740Zm-429,787.23c-1.79,1.56-4.38,2.33-6.68,3.4H707.07c-1.9-1.07-3.69-2.33-5.69-3.3-9.17-4.28-11.17-12.84-4.39-20.23,9.48-10.31,22.65-13.62,35.81-16.34,19.45-4,38.5-1.26,56.86,6,3.09,1.27,6.88,2.63,8.67,5.06,3.1,4.18,7.39,9.72,6.69,14S798.33,1523.74,794.34,1527.24Zm29.33-99.78a211.92,211.92,0,0,0,17.45,20.42c8.68,9.15,18.26,17.61,27.23,26.55,12.47,12.55,9.68,21.5-7.38,27.23-12.17,4.09-23,.2-34.21-3-17.45-5-34.71-10.8-52.36-15.27-26-6.81-51.67-1.94-76.71,5.25-26.23,7.59-51.77,17.12-78.2,24-15.86,4.09-32.51,5.94-49,7-44.19,2.83-87.78-.58-130-14.58a45.25,45.25,0,0,1-7.08-3c-15.26-8-16-10.79-6.39-24.6a288.72,288.72,0,0,0,30-54.36c-4.09-1.75-8.08-3.5-12.07-5.35-8.08-3.7-16-7.69-23.74-11.87-145.53-77.6-244.48-228.34-244.48-401.25a445.35,445.35,0,0,1,41.5-188v-.1c39.5-84.8,104.73-155.89,186-203.74a478.17,478.17,0,0,1,82-38.12c5.69-1.94,11.37-3.89,17.16-5.64a423,423,0,0,1,44.78-11.47c2.9-.68,5.79-1.27,8.68-1.75a467.51,467.51,0,0,1,82.29-8.17c2.1-.1,4.29-.1,6.38-.1,2.3,0,4.49,0,6.79.1q6.29,0,12.56.29c3.3.1,6.69.29,10,.58,14.46.78,28.73,2.34,42.79,4.38,3.69.58,7.48,1.26,11.17,1.94,4.49.68,8.88,1.56,13.27,2.53a464.1,464.1,0,0,1,72.61,21c2.69,1,5.39,2,8.08,3.11a471.74,471.74,0,0,1,87.18,45.9c3,2,5.88,4,8.78,6,118.39,83.05,195.59,218.42,195.59,371.2C1114.42,1195.23,994.13,1359,823.67,1427.46Z" transform="translate(-7.26 -35.63)"/><path class="cls-1" d="M805,1515.86c-.7,4.28-6.69,7.88-10.68,11.38-1.79,1.56-4.38,2.33-6.68,3.4H707.07c-1.9-1.07-3.69-2.33-5.69-3.3-9.17-4.28-11.17-12.84-4.39-20.23,9.48-10.31,22.65-13.62,35.81-16.34,19.45-4,38.5-1.26,56.86,6,3.09,1.27,6.88,2.63,8.67,5.06C801.43,1506,805.72,1511.58,805,1515.86Z" transform="translate(-7.26 -35.63)"/><path class="cls-2" d="M799.73,1371.84c-2.79-30.93-2.39-62.24-1.3-93.27,1.8-51.44,5.89-102.79,7.88-154.23,2.2-57.48-.1-114.66-13.66-170.87-8.48-35.4-18.45-70.41-27.43-105.71-10.47-40.55-25.14-80.33-26.33-122.83-.3-7.29-4.29-14.39-6.29-20.52-10.87,2-19.55,3.41-28.23,5,10.18-8,24.74-9.14,27-22.66-19.55,2.14-39.2,5.26-58.85,5.94-26.14,1-52.87-3.12-58.65-7.49,6.38,0,12-.1,17.55,0,26.83.87,53.76.58,79.7-7.3a86.75,86.75,0,0,0,23.54-11.18c9.87-6.81,11.47-19.26,5.28-29.95-8.77,13.22-12.27,16.53-18.15,16.72,22-24.31,24.44-71.28,20.35-96.08a58.11,58.11,0,0,0-2-9.14c-4,2.53-7.78,4.77-11.27,6.61-12.67,6.81-22.44,9.44-29.42,7.69,1.89-.88,3-1.37,4.09-1.95a137,137,0,0,0,14.16-7.68c33.31-20.13,44.69-46.49,37.8-86.85-4.39-25.47-8.57-50.95-12.07-76.53-.2-1.36-.39-2.72-.59-4.09-1.3-9.82.3-19.93.1-29.95-.1-2-2.5-4-3.8-6-1.39,1.75-3.49,3.41-4,5.35a130.39,130.39,0,0,0-2.4,13.91,191.12,191.12,0,0,1-4.09,18.86c-7.38,26.26-21,49.12-43.59,67.2a55.21,55.21,0,0,1-6.38,4.19,20.57,20.57,0,0,0-1.4-1.66c1.2-2,2.5-4,3.59-6,8.68-15.27,19.55-29.76,25.34-46a134.84,134.84,0,0,0,5.29-19.74c2.29-11.47,3.59-23.24,5.68-34.81.3-1.46-1.69-3.31-2.59-5.06-1.7,1.36-3.69,2.43-4.79,4s-1.4,3.6-2,5.44a130.39,130.39,0,0,1-12.77,29c-12.27,20.72-30,36.86-53.07,48.34-19.25,9.62-39.49,17.11-59.44,25-31.42,12.45-61.65,26.55-83.69,53-.3.29-1.4,0-4.59-.19,6.59-8.37,11.47-16.24,18.06-22.37C532.71,469,557.85,457.89,583.18,447c22.55-9.72,45.19-19.83,66.23-32.19a96,96,0,0,0,32.52-31.6A137,137,0,0,0,697,352.37c-10.77,1.17-20.54,2.14-31.32,3.31-1.19-8.46-2.39-16.54-3.49-24.41,14.37-3.6,19-6.42,28.13-16.63,15.36-17,22.14-37.93,28.63-59,1.39-4.87-1.2-6.91-5-8-13.07-3.79-26.23-7.39-39.4-10.89-5.78-1.46-11.77-2.43-17.65-3.69.2-1.07.3-2.14.49-3.21,22,2.33,43.79,4.66,66.23,7.1.3-2.05.7-4.77,1.1-7.69-41.29-12.74-83-13.13-125.08-8.85,41-20.91,84.59-21.68,129.87-16-.9-3.12-2-6.62-4.19-7.3a201.24,201.24,0,0,0-26.33-7,419.63,419.63,0,0,0-91.07-6.9,23.67,23.67,0,0,1-5.19-.78c3.6-2.34,7.29-2.92,11-3.5,37.7-5.74,75.1-4.38,111.71,6.12,7,2.05,9.18.39,11-5.54,6.09-20.23-4.09-41.23-24.53-49.21-7.78-3.11-17.06-3.5-24.14-7.49a97.57,97.57,0,0,0-53.17-12.93c-45,1.85-74.31,28.1-75,72.16,0,2.63-1,5.25-1.4,7.88-.7,3.89-2,7.78-1.8,11.57.5,8.56,1.7,17.12,2.7,25.58.4,3.21.5,6.9,2.19,9.33,5.39,7.49,5.39,15.46-.8,22.47-7.38,8.36-15,16.72-22,25.38-11.17,13.71-10,24.41,2.89,36.08,1.6,1.46,2.2,4.76,1.8,6.9-1.6,7.59-.9,14.69,4.59,20.42,3.39,3.51,7.78,6.13,12.26,9.54-7.78,15.85-19.75,27.61-34.81,36.27-2.19,1.26-4.49,2.43-6.88,3.6-12.17,5.83-25.13,10.5-37.2,16.63-21.35,10.69-36.51,26.94-45.29,48.91-7.78,19.75-7.28,40.36-8.18,60.88-.2,5.84-.5,12-2.59,17.22a337.93,337.93,0,0,0-20.65,72.15,351,351,0,0,0-4.59,47.07c-.3,9.83-5.28,20.52-10.87,29.08-7.58,11.57-18.65,21-26.83,32.38-18.75,25.78-30.72,54.95-42.39,84.22-9.08,23.05-19.35,45.13-42.29,59-8.38,5.06-15.46,12.16-23.14,18.38-1.1.88-2.4,1.56-3.59,2.34a6.74,6.74,0,0,0-1.3-1.07c2.49-4.57,5-9.05,8.48-15.37-11.17-10-22.35-20.32-34-30-3.39-2.92-4.68-5-4.08-9.53a26.07,26.07,0,0,0-1.4-12.74v-.1c-3.89-10.79-14.26-18.67-26.13-18.57-14.17.19-27.43,12.44-28.43,26.25s11.37,27.82,25.53,29.86c3.29.39,7.58,2.43,9.28,5.06.6.87,1.2,1.75,1.7,2.62,10.07,14.88,19.64,30.15,29,45.42,1.6,2.43,3,5.64,2.59,8.26-2.29,15.37,4.79,27.72,13.67,39.1,6.08,7.78,10.77,7.58,19.85,2.14,2.19-1.36,6.28-2.14,8.08-1,3.89,2.43,6.78,6.22,10.47,9.82-17.65,15.36-34.91,30.53-52.37,45.61-1,.78-3.19.48-4.78.39-10.28-1.17-17.46,4.08-18.66,13.51-1.09,9.24,4.79,16.73,14.07,17.61,9.47,1,15.36-4.28,17-14.59a10,10,0,0,1,4-6c15.46-9.53,31-18.58,46.48-28,3.49-2.14,5.58-2.53,8.37,1.27,6,7.78,12.57,15.17,18.86,22.66,48.87,57.66,97.35,115.53,146.52,172.9,30.92,36.08,61.74,72.36,94.46,106.78,34.61,36.47,71.52,70.8,107.42,106.1a54.1,54.1,0,0,1,4.39,5.16c-.5.48-1.09,1-1.59,1.46-77.5-53.39-139.84-121.66-199.29-192.65-1.1.68-1.5.77-1.5,1-3.89,44-15.26,86.36-29.92,128.08a447.08,447.08,0,0,0-15.16,51.93,30.76,30.76,0,0,0-.9,7.19c-.1,10.7,5.29,19.84,15.86,26.36,2.79-4.77,5.38-9.63,7.88-14.49,19.55-39.1,28.62-81.11,34.11-124.19a13.7,13.7,0,0,1,1.6,7.68c-2.3,22.66-3.29,45.52-7.38,67.79a262.28,262.28,0,0,1-16.26,54.07,479.89,479.89,0,0,0,366.56,4.37C811,1411,801.73,1392.84,799.73,1371.84ZM173.23,821c2.1-11.58,9.08-16.44,21.05-16,10,.29,16.76,7.1,18.15,19.25C200.46,810.22,187.4,811.48,173.23,821ZM311.08,942.38c-3.29-5.54-6.28-10.69-8.38-14.29,18.66-39.39,42.49-74.5,69.72-107.85,34.12-41.92,60.25-88.89,81.1-138.49a547.38,547.38,0,0,0,32.81-107.07c.1-.39.2-.87.3-1.26,2.2-11.09,4-22.27,6.09-33.84,3.49,10,7.18,19.74,10.77,29.46,3,8.46,5.88,16.83,8.48,25.29,3.89,13.22,5.88,27,8,40.65.69,5-.6,10.6-1.7,15.75-1.79,8.66-1,16.53,5.89,22.95.79.78,1.89,2.14,1.69,2.73-5,11.66-.8,24.89-10.27,36.46-15.46,18.87-28.63,39.58-41.2,60.4-19.15,32.09-29.12,67-33.41,104.05-5.09,43.08-1.2,85.58,5.48,128,5.29,33.46,12.27,66.72,18.46,100.07.4,2.34.3,4.77.5,7.2-.6.19-1.2.29-1.8.49q-64-78.49-128.17-157.26c12.57-15.65,24.64-31,37.3-46,1.6-2,5.89-2.14,9.08-2.52,7.58-1,11.77-5.26,13.57-12.06,2.09-7.49-1.1-13.13-7.19-17.31-5.78-3.89-12.16-3.8-17.45.68-2.5,2.23-5,5.93-5.09,9-.4,7.59-4.69,11.87-10.07,16.34C340.8,916.42,326.24,929.25,311.08,942.38Zm268,349.71Q448.18,1135.28,317,977.88c3.79-4.09,6.48-7.1,10.47-11.38q128.37,162.21,255.35,322.77C581.49,1290.24,580.29,1291.22,579.09,1292.09ZM606.72,582c-21.94,3.4-45.18-7.2-58.45-24.41A52.5,52.5,0,0,1,537.8,535.3a16.25,16.25,0,0,1-.1-3.8c6.28,8.27,11.27,17.12,18.45,23.64.3.19.5.48.8.68,17.66,15.56,41.3,17.11,62.44,6a92,92,0,0,0,19.85-14.2c9.78-9.14,17.26-20.23,23.34-32.58a3.4,3.4,0,0,1,2.39-2,74.58,74.58,0,0,1-12.56,34.62,99.79,99.79,0,0,1-7.18,9.43c6.88-3.21,13.36-6.22,19.74-9.14,6-2.72,11.87-5.45,18.16-8.36-1.1,2.91-1.2,3.89-1.7,4.27-2.19,1.56-4.29,3.12-6.48,4.67C654.1,563.3,633.26,577.89,606.72,582ZM678,920.89c-11.27,44.44-24.24,88.5-35,133-11.07,46.09-12.47,92.29,6.68,137.31a9,9,0,0,1,.8,3.21c0,.49-.5.88-1,2-10.87-14.1-17.65-29.86-22.84-46.2-11.07-34.71-12.56-70.31-3.89-105.32,10.68-43.27,23.84-86,36.71-128.76,11.07-37,21.94-74.1,21.94-113.19,0-1.46.5-2.82,2.6-4.28.59,5.54,1.29,11,1.89,16.53C689.91,850.87,686.82,886.17,678,920.89Zm45.88-47.55c-1.69,28.29-8.77,55.33-20,81.39a87,87,0,0,1-8.38,15.85c17.65-80.32,17-159.78-8.28-239.23-7.28,6.71-15.46,11.28-25.14,7.49-5.38-2-10.07-6.13-14.36-10.7,9.58,3.5,18.45,5.93,27.63.1,9.37-5.93,10.67-14.88,9.77-24.8,1-.1,2.1-.1,3.2-.19,1,5.83,2.19,11.67,3.09,17.5.7,3.79.1,8.17,1.69,11.48C715,776.86,726.82,823.54,723.92,873.34Z" transform="translate(-7.26 -35.63)"/><path class="cls-1" d="M861,1501.66c-12.17,4.09-23,.2-34.21-3-17.45-5-34.71-10.8-52.36-15.27-26-6.81-51.67-1.94-76.71,5.25-26.23,7.59-51.77,17.12-78.2,24-15.86,4.09-32.51,5.94-49,7-44.19,2.83-87.78-.58-130-14.58a45.25,45.25,0,0,1-7.08-3c-15.26-8-16-10.79-6.39-24.6a288.72,288.72,0,0,0,30-54.36,479.89,479.89,0,0,0,366.56,4.37,211.92,211.92,0,0,0,17.45,20.42c8.68,9.15,18.26,17.61,27.23,26.55C880.82,1487,878,1495.93,861,1501.66Z" transform="translate(-7.26 -35.63)"/><path class="cls-2" d="M1012.91,59.69c3.66-8.25-4.84-21.5,8.44-22.94,17.18-1.87,15.41-3.55,19.83,13.93,8.09-.86,16.22-2.06,24.39-2.52,17.24-1,24.32,6.66,21.83,23.33-3.89,26-15.67,46.3-42.51,55.55-5.83,2-7,5.86-7,11.52q-.84,69.75-2.29,139.49c-.62,31.44-1.6,62.87-2.18,94.31,0,2.62,1,6.4,2.91,7.71,14.49,9.91,17.28,16.76,12.5,33a22.57,22.57,0,0,0-.45,3.58c25.28,10.87,42.18,31.63,61.9,49.07,18.8,16.63,41.2,24.29,66.37,24.7,1.9,0,3.81-.59,6.28-1-1.6-3.81-3.54-6.94-4.2-10.3-1.55-8,.68-15.06,7.76-19.85,6.56-4.44,14.09-5.45,21-1.64a18.52,18.52,0,0,1,9.87,19,36.66,36.66,0,0,1-6.28,15.92c-2.81,4-3.25,6.73-1.46,11.2,20.14,50.48,40,101.06,60,151.6,6,15.16,5.18,18.77-11.49,22.25-18.54,3.87-37.68,5-56.59,7.16-4,.45-8.16.06-14,.06,12.55,8,42.91,8.51,83.26,2.5-7.93,37.82-48.24,63.45-86.63,56.08-36-6.9-58.77-36.93-61.73-69.83-.49-5.46,1.53-11.47,3.6-16.79,18.39-47.27,37-94.45,55.64-141.65,1.19-3,2.5-6,4.23-10.15-8.6,0-16.23.6-23.73-.11-21.58-2-40.82-11.35-60.58-19.14-25.16-9.91-50.7-19.15-78.41-18.19-24.85.86-47.83,9.47-70.75,18-19.87,7.41-38.71,18.05-60.62,19.2-7.34.39-14.71.06-23.36.06,5.9,15.6,11.19,30.12,16.88,44.48,15,37.79,30,75.56,45.27,113.22,2.87,7.05-.84,10.77-6.19,12.07-15.94,3.88-32,7.38-48.27,9.78-9.11,1.35-18.6.24-29.05.24,8.43,8.21,53.46,9.41,81.58,2.44-3.89,17.37-13.12,30.89-26.79,41.53C858.41,762.45,801.54,740,784.17,692.83c-7.39-20-.23-36.78,6.76-54.31q14.52-36.45,28.94-73c8-20.2,15.63-40.51,23.83-60.62,2-4.86,1.56-8-1.05-12.84a47.78,47.78,0,0,1-5.5-21.77c0-7.38,6-12.46,13.46-14.28,8.1-2,15.26.16,20.59,6.73,5.09,6.26,5.48,13.22,2.72,20.48a55.71,55.71,0,0,1-3.07,5.72c12,3.66,23,.39,33.85-2.27,18.14-4.48,32.67-14.87,45.91-27.57,16.59-15.91,32.16-33.23,55-42.43-.62-2.22-1.16-4.29-1.77-6.34-3.39-11.21.29-22.8,10.67-28.17,5.51-2.85,6.19-6.17,6.07-11.19q-1.33-53-2.41-106.07-1.31-60.54-2.52-121.1c0-2.2,0-4.4,0-6.55-12.25-1.19-14.28.27-16.95,10.75-11.54,45.27-22.26,90.76-41,134-10.17,23.49-23.69,43.25-47.2,57.25-20,11.89-36.92,28.62-55.09,43.34-28.31,22.94-60.44,39.07-96.45,52-1.95-15-3.9-29.16-5.57-43.35-.45-3.85-.07-7.79-.06-11.69.12-27.34.08-27.42,25.61-38.89,25.81-11.6,51.8-22.81,77.52-34.6,12.11-5.56,18.78-15.39,24.19-27.58q27.75-62.56,58-124c9.7-19.73,21.4-38.58,33-57.38C981.85,80.58,995.53,67.29,1012.91,59.69Zm185,449.62L1129.6,658.17c45.92-12.57,90.15-12.21,136.4-.16ZM924,658,856,509.17,787.72,658C833.71,645.78,878.17,645.78,924,658Zm114.4-254.84c.14-6.59-4.9-12.23-11.09-12.44-5.93-.2-11.64,5.51-11.83,11.84-.23,7.42,3.78,11.76,11,11.92C1033.45,414.59,1038.31,410,1038.44,403.11Z" transform="translate(-7.26 -35.63)"/></svg>